<svg xmlns="http://www.w3.org/2000/svg" width="1200" height="720" viewBox="0 0 1200 720" role="img" aria-label="Audit review workpaper illustration">
  <defs>
    <pattern id="audit-grid" width="42" height="42" patternUnits="userSpaceOnUse">
      <path d="M42 0H0V42" fill="none" stroke="#172033" stroke-width="1" opacity=".07"/>
    </pattern>
    <filter id="soft-shadow" x="-20%" y="-20%" width="140%" height="140%">
      <feDropShadow dx="0" dy="14" stdDeviation="16" flood-color="#0f172a" flood-opacity=".14"/>
    </filter>
  </defs>
  <rect width="1200" height="720" rx="36" fill="#f4f6f8"/>
  <rect width="1200" height="720" rx="36" fill="url(#audit-grid)"/>
  <rect x="70" y="64" width="1060" height="592" rx="28" fill="#ffffff" filter="url(#soft-shadow)"/>
  <rect x="70" y="64" width="1060" height="46" rx="20" fill="#172033"/>
  <rect x="104" y="132" width="8" height="480" rx="4" fill="#c2413a"/>
  <g transform="translate(150 140)">
    <text x="0" y="0" fill="#c2413a" font-family="Arial, sans-serif" font-size="22" font-weight="700">AUDIT WORKPAPER</text>
    <rect x="0" y="42" width="430" height="18" rx="9" fill="#172033"/>
    <rect x="0" y="80" width="330" height="12" rx="6" fill="#3f4a5a" opacity=".55"/>
    <rect x="0" y="112" width="380" height="12" rx="6" fill="#3f4a5a" opacity=".35"/>
  </g>
  <g transform="translate(720 132)">
    <rect width="300" height="210" fill="#ffffff" stroke="#d6dde5" stroke-width="2"/>
    <rect width="150" height="105" fill="#e5f1ef"/>
    <rect x="150" width="150" height="105" fill="#faecd6"/>
    <rect y="105" width="150" height="105" fill="#eef1f5"/>
    <rect x="150" y="105" width="150" height="105" fill="#f4d6d4"/>
    <path d="M150 0V210M0 105H300" stroke="#d6dde5" stroke-width="2"/>
    <circle cx="226" cy="156" r="18" fill="#c2413a"/>
    <circle cx="74" cy="52" r="12" fill="#2d7f76"/>
  </g>
  <g transform="translate(150 405)">
    <rect width="176" height="90" rx="10" fill="#ffffff" stroke="#d6dde5"/>
    <rect y="0" width="176" height="12" rx="6" fill="#c2413a"/>
    <rect x="18" y="30" width="62" height="10" rx="5" fill="#172033"/>
    <rect x="18" y="54" width="116" height="8" rx="4" fill="#8a94a6"/>
    <rect x="206" width="176" height="90" rx="10" fill="#ffffff" stroke="#d6dde5"/>
    <rect x="206" y="0" width="176" height="12" rx="6" fill="#d9902f"/>
    <rect x="224" y="30" width="62" height="10" rx="5" fill="#172033"/>
    <rect x="224" y="54" width="116" height="8" rx="4" fill="#8a94a6"/>
    <rect x="412" width="176" height="90" rx="10" fill="#ffffff" stroke="#d6dde5"/>
    <rect x="412" y="0" width="176" height="12" rx="6" fill="#2d7f76"/>
    <rect x="430" y="30" width="62" height="10" rx="5" fill="#172033"/>
    <rect x="430" y="54" width="116" height="8" rx="4" fill="#8a94a6"/>
  </g>
  <g transform="translate(720 404)" fill="none" stroke-linecap="round">
    <rect width="300" height="122" rx="14" fill="#ffffff" stroke="#d6dde5"/>
    <path d="M40 62H96M128 62H184M216 62H270" stroke="#c2413a" stroke-width="4"/>
    <circle cx="40" cy="62" r="16" fill="#172033" stroke="#172033"/>
    <circle cx="128" cy="62" r="16" fill="#ffffff" stroke="#172033" stroke-width="4"/>
    <circle cx="216" cy="62" r="16" fill="#ffffff" stroke="#2d7f76" stroke-width="4"/>
    <text x="28" y="102" fill="#3f4a5a" font-family="Arial, sans-serif" font-size="18">CHECK</text>
    <text x="112" y="102" fill="#3f4a5a" font-family="Arial, sans-serif" font-size="18">PLAN</text>
    <text x="202" y="102" fill="#3f4a5a" font-family="Arial, sans-serif" font-size="18">REVIEW</text>
  </g>
</svg>
