<svg xmlns="http://www.w3.org/2000/svg" width="720" height="420" viewBox="0 0 720 420" role="img" aria-label="media card cluster">
  <defs>
    <linearGradient id="panel" x1="0" y1="0" x2="1" y2="1">
      <stop offset="0" stop-color="#ffffff"/>
      <stop offset="1" stop-color="#eaf4ff"/>
    </linearGradient>
    <linearGradient id="blue" x1="0" y1="0" x2="1" y2="1">
      <stop offset="0" stop-color="#1d9bf0"/>
      <stop offset="1" stop-color="#12355b"/>
    </linearGradient>
    <filter id="shadow" x="-20%" y="-20%" width="140%" height="150%">
      <feDropShadow dx="0" dy="18" stdDeviation="18" flood-color="#12355b" flood-opacity=".18"/>
    </filter>
  </defs>
  <rect x="44" y="34" width="632" height="342" rx="34" fill="url(#panel)" filter="url(#shadow)"/>
  <path d="M98 300C184 248 272 340 362 286C456 229 528 274 624 222" fill="none" stroke="#1d9bf0" stroke-width="10" stroke-linecap="round" opacity=".24"/>
  <g fill="#fff" stroke="#d6e3f0" stroke-width="2">
    <rect x="98" y="86" width="144" height="92" rx="18"/>
    <rect x="288" y="72" width="144" height="116" rx="18"/>
    <rect x="478" y="104" width="118" height="92" rx="18"/>
    <rect x="132" y="228" width="130" height="88" rx="18"/>
    <rect x="332" y="220" width="164" height="98" rx="18"/>
  </g>
  <g fill="url(#blue)">
    <circle cx="128" cy="120" r="18"/>
    <path d="M326 104h68v14h-68zM326 132h48v12h-48z" rx="6"/>
    <path d="M522 132l34 20-34 20z"/>
    <circle cx="164" cy="264" r="18"/>
    <circle cx="204" cy="264" r="18" opacity=".72"/>
    <rect x="374" y="250" width="76" height="12" rx="6"/>
    <rect x="374" y="276" width="54" height="12" rx="6" opacity=".68"/>
  </g>
  <g fill="#f59e0b">
    <circle cx="242" cy="178" r="8"/>
    <circle cx="432" cy="188" r="8"/>
    <circle cx="496" cy="220" r="8"/>
  </g>
</svg>
