<svg xmlns="http://www.w3.org/2000/svg" width="1200" height="720" viewBox="0 0 1200 720" role="img" aria-label="template-specific-illustration">
  <defs>
    <linearGradient id="p1.9159478232500012e+41bg" x1="0" y1="0" x2="1" y2="1">
      <stop offset="0" stop-color="#f0fdf4"/>
      <stop offset="1" stop-color="#ffffff"/>
    </linearGradient>
    <pattern id="p1.9159478232500012e+41grid" width="64" height="64" patternUnits="userSpaceOnUse">
      <path d="M64 0H0V64" fill="none" stroke="#14532d" stroke-width="1" opacity=".08"/>
    </pattern>
  </defs>
  <rect width="1200" height="720" rx="48" fill="url(#p1.9159478232500012e+41bg)"/>
  <rect width="1200" height="720" rx="48" fill="url(#p1.9159478232500012e+41grid)"/>
  <circle cx="1040" cy="126" r="116" fill="#22c55e" opacity=".14"/>
  <circle cx="120" cy="610" r="148" fill="#f97316" opacity=".12"/>
  
      <rect x="104" y="90" width="992" height="540" rx="40" fill="#ffffff"/>
      <path d="M188 520 C302 386 390 488 506 354 S704 210 858 308 S960 420 1030 230" fill="none" stroke="#22c55e" stroke-width="18" stroke-linecap="round"/>
      <g fill="#ffffff" stroke="#14532d" stroke-width="7"><circle cx="188" cy="520" r="46"/><circle cx="506" cy="354" r="46"/><circle cx="858" cy="308" r="46"/><circle cx="1030" cy="230" r="46"/></g>
      <rect x="246" y="150" width="286" height="34" rx="17" fill="#14532d"/>
      <rect x="246" y="206" width="430" height="18" rx="9" fill="#14532d" opacity=".35"/>
      <rect x="760" y="440" width="230" height="90" rx="24" fill="#22c55e" opacity=".16"/>
</svg>
