<svg xmlns="http://www.w3.org/2000/svg" width="1200" height="720" viewBox="0 0 1200 720" role="img" aria-label="template-specific-illustration">
  <defs>
    <linearGradient id="p5.443317091983071e+48bg" x1="0" y1="0" x2="1" y2="1">
      <stop offset="0" stop-color="#f59e0b"/>
      <stop offset="1" stop-color="#ffffff"/>
    </linearGradient>
    <pattern id="p5.443317091983071e+48grid" width="64" height="64" patternUnits="userSpaceOnUse">
      <path d="M64 0H0V64" fill="none" stroke="#60a5fa" stroke-width="1" opacity=".08"/>
    </pattern>
  </defs>
  <rect width="1200" height="720" rx="48" fill="url(#p5.443317091983071e+48bg)"/>
  <rect width="1200" height="720" rx="48" fill="url(#p5.443317091983071e+48grid)"/>
  <circle cx="1040" cy="126" r="116" fill="#f8fafc" opacity=".14"/>
  <circle cx="120" cy="610" r="148" fill="#1e3a8a" opacity=".12"/>
  
      <rect x="112" y="104" width="976" height="512" rx="40" fill="#ffffff" opacity=".78"/>
      <rect x="176" y="170" width="390" height="250" rx="30" fill="#60a5fa" opacity=".94"/>
      <path d="M214 366 C294 280 386 356 464 250 S604 178 742 232 S912 372 1018 198" fill="none" stroke="#f8fafc" stroke-width="16" stroke-linecap="round"/>
      <g fill="#1e3a8a"><rect x="628" y="180" width="160" height="40" rx="20"/><rect x="628" y="252" width="250" height="24" rx="12" opacity=".72"/><rect x="628" y="308" width="320" height="24" rx="12" opacity=".45"/></g>
      <circle cx="974" cy="496" r="72" fill="#f8fafc" opacity=".18"/>
</svg>
