<svg xmlns="http://www.w3.org/2000/svg" width="600" height="360" viewBox="0 0 600 360" role="img" aria-label="social media content scene">
  <defs>
    <linearGradient id="bg" x1="0" x2="1" y1="0" y2="1">
      <stop offset="0" stop-color="#fff7ed"/>
      <stop offset="1" stop-color="#fdf2f8"/>
    </linearGradient>
    <linearGradient id="card" x1="0" x2="1">
      <stop offset="0" stop-color="#7f1d4e"/>
      <stop offset="1" stop-color="#f97316"/>
    </linearGradient>
  </defs>
  <rect width="600" height="360" rx="32" fill="url(#bg)"/>
  <rect x="48" y="52" width="160" height="230" rx="28" fill="#ffffff" stroke="#f9a8d4" stroke-width="3"/>
  <rect x="72" y="82" width="112" height="80" rx="18" fill="url(#card)"/>
  <rect x="78" y="180" width="86" height="10" rx="5" fill="#7f1d4e" opacity=".78"/>
  <rect x="78" y="202" width="112" height="10" rx="5" fill="#f97316" opacity=".72"/>
  <rect x="78" y="224" width="72" height="10" rx="5" fill="#0f766e" opacity=".68"/>
  <circle cx="96" cy="258" r="12" fill="#f97316"/>
  <circle cx="128" cy="258" r="12" fill="#7f1d4e"/>
  <circle cx="160" cy="258" r="12" fill="#0f766e"/>
  <rect x="250" y="72" width="290" height="72" rx="22" fill="#ffffff" stroke="#fed7aa" stroke-width="3"/>
  <rect x="276" y="96" width="118" height="14" rx="7" fill="#7f1d4e"/>
  <rect x="276" y="120" width="184" height="10" rx="5" fill="#5a3b48" opacity=".45"/>
  <circle cx="498" cy="108" r="20" fill="#f97316" opacity=".9"/>
  <rect x="250" y="172" width="290" height="72" rx="22" fill="#ffffff" stroke="#f9a8d4" stroke-width="3"/>
  <rect x="276" y="195" width="154" height="14" rx="7" fill="#0f766e"/>
  <rect x="276" y="220" width="208" height="10" rx="5" fill="#5a3b48" opacity=".45"/>
  <circle cx="498" cy="208" r="20" fill="#7f1d4e" opacity=".9"/>
  <path d="M208 122C252 104 262 110 292 110M208 234C252 212 262 210 292 210" fill="none" stroke="#f97316" stroke-width="5" stroke-linecap="round" opacity=".62"/>
</svg>
