<svg xmlns="http://www.w3.org/2000/svg" width="720" height="420" viewBox="0 0 720 420" fill="none">
  <rect width="720" height="420" rx="36" fill="#F5F8F6"/>
  <rect x="92" y="274" width="146" height="74" rx="18" fill="#FFFFFF" stroke="#D9E7E2"/>
  <rect x="286" y="204" width="146" height="144" rx="18" fill="#FFFFFF" stroke="#D9E7E2"/>
  <rect x="480" y="128" width="146" height="220" rx="18" fill="#FFFFFF" stroke="#2FBF71"/>
  <path d="M138 306h54M332 238h54M526 166h54" stroke="#123B3A" stroke-width="10" stroke-linecap="round"/>
  <path d="M138 326h72M332 264h72M526 194h72" stroke="#7A918D" stroke-width="8" stroke-linecap="round"/>
  <path d="M206 242c78-20 122-54 172-105 46-47 83-67 166-80" stroke="#2FBF71" stroke-width="14" stroke-linecap="round"/>
  <path d="M531 50l35 8-22 28" stroke="#2FBF71" stroke-width="14" stroke-linecap="round" stroke-linejoin="round"/>
  <circle cx="165" cy="250" r="18" fill="#F2B84B"/>
  <circle cx="359" cy="180" r="18" fill="#2FBF71"/>
  <circle cx="553" cy="104" r="18" fill="#2FBF71"/>
</svg>
