<svg xmlns="http://www.w3.org/2000/svg" width="1200" height="720" viewBox="0 0 1200 720" role="img" aria-label="template-specific-illustration">
  <defs>
    <linearGradient id="p6.196236052827404e+42bg" x1="0" y1="0" x2="1" y2="1">
      <stop offset="0" stop-color="#1d4ed8"/>
      <stop offset="1" stop-color="#ffffff"/>
    </linearGradient>
    <pattern id="p6.196236052827404e+42grid" width="64" height="64" patternUnits="userSpaceOnUse">
      <path d="M64 0H0V64" fill="none" stroke="#f8fafc" stroke-width="1" opacity=".08"/>
    </pattern>
  </defs>
  <rect width="1200" height="720" rx="48" fill="url(#p6.196236052827404e+42bg)"/>
  <rect width="1200" height="720" rx="48" fill="url(#p6.196236052827404e+42grid)"/>
  <circle cx="1040" cy="126" r="116" fill="#f97316" opacity=".14"/>
  <circle cx="120" cy="610" r="148" fill="#06b6d4" opacity=".12"/>
  
      <rect x="120" y="125" width="255" height="160" rx="32" fill="#dbeafe"/>
      <rect x="120" y="435" width="255" height="160" rx="32" fill="#e0f2fe"/>
      <rect x="472" y="242" width="256" height="236" rx="36" fill="#f8fafc"/>
      <rect x="825" y="125" width="255" height="160" rx="32" fill="#ecfeff"/>
      <rect x="825" y="435" width="255" height="160" rx="32" fill="#ccfbf1"/>
      <g stroke="#f97316" stroke-width="11" stroke-linecap="round" fill="none"><path d="M375 205H472"/><path d="M375 515H472"/><path d="M728 360H825"/><path d="M728 360C766 360 780 205 825 205"/><path d="M728 360C766 360 780 515 825 515"/></g>
      <circle cx="600" cy="360" r="58" fill="#06b6d4" opacity=".8"/>
</svg>
